<?xml version="1.0" encoding="UTF-8"?>
<svg width="140px" height="134px" viewBox="0 0 140 134" version="1.1" xmlns="http://www.w3.org/2000/svg" xmlns:xlink="http://www.w3.org/1999/xlink">
    <!-- Generator: Sketch 61.2 (89653) - https://sketch.com -->
    <title>编组</title>
    <desc>Created with Sketch.</desc>
    <g id="页面-1" stroke="none" stroke-width="1" fill="none" fill-rule="evenodd">
        <g id="空页面备份" transform="translate(-119.000000, -207.000000)" fill-rule="nonzero">
            <g id="编组" transform="translate(119.000000, 207.000000)">
                <g id="success">
                    <path d="M3.37010479,66.6988275 C3.37010479,103.503017 33.2061704,133.345458 70.0231103,133.345458 C106.833675,133.345458 136.66974,103.509392 136.66974,66.6924522 C136.66974,29.8818876 106.833675,0.0394467213 70.0231103,0.0394467213 C33.2125456,0.0394467213 3.37010479,29.8818876 3.37010479,66.6924522 L3.37010479,66.6988275 Z" id="路径" fill="#579FFF" opacity="0.05"></path>
                    <path d="M19.6269354,66.1505578 C19.6269354,93.6843166 41.947457,116.004838 69.4812158,116.004838 C97.0149747,116.004838 119.335496,93.6843166 119.335496,66.1505578 C119.335496,38.616799 97.0149747,16.2962773 69.4812158,16.2962773 C41.947457,16.2962773 19.6269354,38.616799 19.6269354,66.1505578 Z" id="路径" fill="#579FFF" opacity="0.1"></path>
                    <path d="M36.9675546,66.1505578 C36.9675546,84.7024704 51.7644581,99.7480078 70.0231103,99.7480078 C88.2753872,99.7480078 103.078666,84.7024705 103.078666,66.1505578 C103.078666,47.5986452 88.275387,32.5531079 70.0231103,32.5531079 C51.7644582,32.5531079 36.9675546,47.5986452 36.9675546,66.1505578 Z" id="路径" fill="#579FFF"></path>
                    <path d="M17.4593579,16.8445469 C17.4593579,20.1366267 20.128116,22.8053848 23.4201958,22.8053848 C26.7122757,22.8053848 29.3810337,20.1366267 29.3810337,16.8445469 C29.3810337,13.552467 26.7122757,10.8837091 23.4201958,10.8837091 C20.128116,10.8837091 17.4593579,13.552467 17.4593579,16.8445469 L17.4593579,16.8445469 Z M127.999431,58.0285178 C127.999431,61.3205976 130.668189,63.9893557 133.960269,63.9893557 C137.252349,63.9893557 139.921107,61.3205976 139.921107,58.0285178 C139.921107,54.7364379 137.252349,52.0676798 133.960269,52.0676798 C130.668189,52.0676798 127.999431,54.7364379 127.999431,58.0285178 L127.999431,58.0285178 Z M110.665187,113.837261 C110.665187,115.632941 112.120873,117.088627 113.916553,117.088627 C115.712233,117.088627 117.167919,115.632941 117.167919,113.837261 C117.167919,112.041581 115.712233,110.585895 113.916553,110.585895 C112.120873,110.585895 110.665187,112.041581 110.665187,113.837261 Z" id="形状" fill="#54EACD"></path>
                    <path d="M117.167919,60.7316143 C117.167919,61.8932156 117.787626,62.9665796 118.793602,63.5473802 C119.799578,64.1281809 121.038992,64.1281809 122.044968,63.5473802 C123.050944,62.9665796 123.670651,61.8932156 123.670651,60.7316143 C123.670651,58.9359344 122.214965,57.4802482 120.419285,57.4802482 C118.623605,57.4802482 117.167919,58.9359344 117.167919,60.7316143 L117.167919,60.7316143 Z M0.118738665,72.65329 C0.118738665,73.8148913 0.738445526,74.8882551 1.74442171,75.4690557 C2.7503979,76.0498563 3.98981167,76.0498563 4.99578786,75.4690557 C6.00176405,74.8882551 6.62147091,73.8148913 6.62147091,72.65329 C6.62147091,70.8576101 5.16578469,69.401924 3.37010479,69.401924 C1.57442488,69.401924 0.118738665,70.8576101 0.118738665,72.65329 Z" id="形状" fill="#579FFF"></path>
                    <path d="M118.251708,28.7662227 C118.251708,30.2626226 119.464779,31.4756945 120.961179,31.4756945 C122.457579,31.4756945 123.670651,30.2626226 123.670651,28.7662227 C123.670651,27.2698227 122.457579,26.0567509 120.961179,26.0567509 C119.464779,26.0567509 118.251708,27.2698227 118.251708,28.7662227 Z" id="路径" fill="#BA7CFA"></path>
                    <path d="M20.710724,116.546733 C20.710724,118.043133 21.9237959,119.256204 23.4201958,119.256204 C24.9165958,119.256204 26.1296676,118.043133 26.1296676,116.546733 C26.1296676,115.050333 24.9165958,113.837261 23.4201958,113.837261 C21.9237959,113.837261 20.710724,115.050333 20.710724,116.546733 Z" id="路径" fill="#FFCC2F"></path>
                </g>
                <g id="yidongduan_2" transform="translate(58.000000, 48.000000)">
                    <path d="M18.681009,37.3134328 L6.24319806,37.3134328 C2.80859141,37.3134328 0.0242926116,34.529134 0.0242926116,31.0945274 L0.0242926116,6.21890548 C0.0242926116,2.78429884 2.80859141,0 6.24319806,0 L18.681009,0 C22.1156157,0 24.8999145,2.78429884 24.8999145,6.21890548 L24.8999145,31.0945274 C24.8999145,34.529134 22.1156157,37.3134328 18.681009,37.3134328 Z M6.24319806,3.10945272 C5.41851992,3.10945272 4.62761844,3.43705484 4.04448294,4.02019035 C3.46134744,4.60332586 3.13374534,5.39422734 3.13374534,6.21890548 L3.13374534,31.0945274 C3.13374534,31.9192055 3.46134744,32.710107 4.04448294,33.2932425 C4.62761844,33.876378 5.41851992,34.2039801 6.24319806,34.2039801 L18.681009,34.2039801 C19.5056872,34.2039801 20.2965886,33.876378 20.8797241,33.2932425 C21.4628597,32.710107 21.7904618,31.9192055 21.7904618,31.0945274 L21.7904618,6.21890548 C21.7904618,5.39422734 21.4628597,4.60332586 20.8797241,4.02019035 C20.2965886,3.43705484 19.5056872,3.10945272 18.681009,3.10945272 L6.24319806,3.10945272 Z" id="形状" fill="#FFFFFF"></path>
                    <path d="M7.79792444,27.9850746 L17.1262826,27.9850746 C18.1627669,27.9850746 18.681009,28.5033168 18.681009,29.539801 L18.681009,29.539801 C18.681009,30.5762853 18.1627669,31.0945274 17.1262826,31.0945274 L7.79792444,31.0945274 C6.76144019,31.0945274 6.24319806,30.5762852 6.24319806,29.539801 L6.24319806,29.539801 C6.24319806,28.5033168 6.76144019,27.9850746 7.79792444,27.9850746 Z" id="路径" fill="#BBD8FF"></path>
                </g>
            </g>
        </g>
    </g>
</svg>